<?xml version="1.0" encoding="UTF-8" standalone="no"?>
<!-- Created with Inkscape (http://www.inkscape.org/) -->

<svg
   width="1920"
   height="620"
   viewBox="0 0 508 164.04167"
   version="1.1"
   id="svg5"
   sodipodi:docname="hexagon_gallery.svg"
   inkscape:version="1.1 (c68e22c387, 2021-05-23)"
   xmlns:inkscape="http://www.inkscape.org/namespaces/inkscape"
   xmlns:sodipodi="http://sodipodi.sourceforge.net/DTD/sodipodi-0.dtd"
   xmlns="http://www.w3.org/2000/svg"
   xmlns:svg="http://www.w3.org/2000/svg">
  <sodipodi:namedview
     id="namedview7"
     pagecolor="#505050"
     bordercolor="#eeeeee"
     borderopacity="1"
     inkscape:pageshadow="0"
     inkscape:pageopacity="0"
     inkscape:pagecheckerboard="0"
     inkscape:document-units="px"
     showgrid="true"
     inkscape:snap-page="true"
     inkscape:zoom="0.43325908"
     inkscape:cx="927.8513"
     inkscape:cy="567.7896"
     inkscape:window-width="1842"
     inkscape:window-height="1015"
     inkscape:window-x="78"
     inkscape:window-y="31"
     inkscape:window-maximized="1"
     inkscape:current-layer="layer2">
    <inkscape:grid
       type="xygrid"
       id="grid1808"
       originx="0"
       originy="0" />
  </sodipodi:namedview>
  <defs
     id="defs2">
    <inkscape:path-effect
       effect="powerclip"
       id="path-effect8458"
       is_visible="true"
       lpeversion="1"
       inverse="true"
       flatten="false"
       hide_clip="false"
       message="Use fill-rule evenodd on &lt;b&gt;fill and stroke&lt;/b&gt; dialog if no flatten result after convert clip to paths." />
    <filter
       id="mask-powermask-path-effect3126_inverse"
       inkscape:label="filtermask-powermask-path-effect3126"
       style="color-interpolation-filters:sRGB"
       height="100"
       width="100"
       x="-50"
       y="-50">
      <feColorMatrix
         id="mask-powermask-path-effect3126_primitive1"
         values="1"
         type="saturate"
         result="fbSourceGraphic" />
      <feColorMatrix
         id="mask-powermask-path-effect3126_primitive2"
         values="-1 0 0 0 1 0 -1 0 0 1 0 0 -1 0 1 0 0 0 1 0 "
         in="fbSourceGraphic" />
    </filter>
    <clipPath
       clipPathUnits="userSpaceOnUse"
       id="clipPath8454">
      <path
         id="path8456"
         style="display:none;fill:#ededed;stroke:#000000;stroke-width:0.0132292;stroke-linejoin:round;paint-order:stroke fill markers"
         d="m 491.84287,33.126114 c -0.1411,0.211669 -2.43432,4.162708 -5.11545,8.748821 l -4.83277,8.36073 5.15059,8.995833 5.18573,9.030976 h 9.94822 9.94823 l 5.00954,-8.607746 c 2.75164,-4.72722 5.00949,-8.784166 5.00949,-8.995833 0,-0.388054 -9.34852,-16.93323 -9.80715,-17.356566 -0.4586,-0.423331 -20.17893,-0.564269 -20.49643,-0.176215 z" />
      <path
         id="lpe_path-effect8458"
         style="fill:#ededed;stroke:#000000;stroke-width:0.0132292;stroke-linejoin:round;paint-order:stroke fill markers"
         class="powerclip"
         d="M -5,-5 H 513 V 142.58333 H -5 Z" />
    </clipPath>
    <clipPath
       clipPathUnits="userSpaceOnUse"
       id="clipPath8462">
      <path
         id="path8464"
         style="fill:#ededed;stroke:#000000;stroke-width:0.0132292;stroke-linejoin:round;paint-order:stroke fill markers"
         d="m -12.982122,69.638632 c -0.14111,0.211667 -2.434342,4.162706 -5.115453,8.748819 l -4.832782,8.36073 5.150592,8.995833 5.185733,9.030996 h 9.9482314 9.9482255 l 5.0095181,-8.607766 c 2.75166,-4.72722 5.00951,-8.784166 5.00951,-8.995833 0,-0.388054 -9.3485388,-16.93323 -9.8071585,-17.356566 C 7.0556848,69.391514 -12.664622,69.250576 -12.982122,69.638632 Z" />
    </clipPath>
    <clipPath
       clipPathUnits="userSpaceOnUse"
       id="clipPath8935">
      <path
         id="path8937"
         style="fill:#ededed;stroke:#000000;stroke-width:0.0132292;stroke-linejoin:round;paint-order:stroke fill markers"
         d="m 491.84287,69.638635 c -0.1411,0.211669 -2.43432,4.162708 -5.11545,8.748821 l -4.83277,8.36073 5.15059,8.995833 5.18573,9.031001 h 9.94822 9.94823 l 5.00954,-8.60777 c 2.75164,-4.727221 5.00949,-8.784167 5.00949,-8.995834 0,-0.388054 -9.34852,-16.93323 -9.80715,-17.356566 -0.4586,-0.423333 -20.17893,-0.564269 -20.49643,-0.176215 z" />
    </clipPath>
  </defs>
  <g
     inkscape:label="Layer 1"
     inkscape:groupmode="layer"
     id="layer1"
     style="display:none">
    <rect
       style="fill:#121212;fill-opacity:1;stroke:none;stroke-width:0.132292;stroke-linejoin:round;paint-order:stroke fill markers"
       id="rect1020"
       width="508"
       height="116.41666"
       x="0"
       y="0"
       rx="0" />
    <rect
       style="fill:#ededed;stroke:#000000;stroke-width:0.132292;stroke-linejoin:round;paint-order:stroke fill markers"
       id="rect846"
       width="508"
       height="54.364216"
       x="0"
       y="0"
       rx="0" />
    <path
       sodipodi:type="star"
       style="fill:#ededed;stroke:none;stroke-width:0.5;stroke-linejoin:round;stroke-opacity:1;paint-order:stroke fill markers"
       id="path896"
       inkscape:flatsided="true"
       sodipodi:sides="6"
       sodipodi:cx="374.90221"
       sodipodi:cy="488.07461"
       sodipodi:r1="256.23666"
       sodipodi:r2="221.90746"
       sodipodi:arg1="-1.0475363"
       sodipodi:arg2="-0.52393754"
       inkscape:rounded="0"
       inkscape:randomized="0"
       d="M 502.94536,266.12376 631.13886,487.98781 503.09571,709.93866 246.85906,710.02546 118.66556,488.16141 246.70872,266.21056 Z"
       transform="matrix(0.07851495,0,0,0.07851495,-9.3170206,16.036247)" />
    <path
       sodipodi:type="star"
       style="fill:#ededed;stroke:none;stroke-width:0.5;stroke-linejoin:round;stroke-opacity:1;paint-order:stroke fill markers"
       id="path996"
       inkscape:flatsided="true"
       sodipodi:sides="6"
       sodipodi:cx="374.90222"
       sodipodi:cy="488.07462"
       sodipodi:r1="256.23666"
       sodipodi:r2="221.90746"
       sodipodi:arg1="-1.0475363"
       sodipodi:arg2="-0.52393754"
       inkscape:rounded="0"
       inkscape:randomized="0"
       d="M 502.94538,266.12377 631.13887,487.98782 503.09572,709.93866 246.85907,710.02546 118.66557,488.16142 246.70873,266.21057 Z"
       transform="matrix(0.07851495,0,0,0.07851495,56.299676,16.036247)" />
    <path
       sodipodi:type="star"
       style="fill:#ededed;stroke:none;stroke-width:0.5;stroke-linejoin:round;paint-order:stroke fill markers"
       id="path1369"
       inkscape:flatsided="true"
       sodipodi:sides="6"
       sodipodi:cx="374.90222"
       sodipodi:cy="488.07462"
       sodipodi:r1="256.23666"
       sodipodi:r2="221.90746"
       sodipodi:arg1="-1.0475363"
       sodipodi:arg2="-0.52393754"
       inkscape:rounded="0"
       inkscape:randomized="0"
       d="M 502.94538,266.12377 631.13887,487.98782 503.09572,709.93866 246.85907,710.02546 118.66557,488.16142 246.70873,266.21057 Z"
       transform="matrix(0.07851495,0,0,0.07851495,56.56426,54.665435)" />
    <path
       sodipodi:type="star"
       style="fill:#ededed;stroke:none;stroke-width:0.5;stroke-linejoin:round;paint-order:stroke fill markers"
       id="path1371"
       inkscape:flatsided="true"
       sodipodi:sides="6"
       sodipodi:cx="374.90222"
       sodipodi:cy="488.07462"
       sodipodi:r1="256.23666"
       sodipodi:r2="221.90746"
       sodipodi:arg1="-1.0475363"
       sodipodi:arg2="-0.52393754"
       inkscape:rounded="0"
       inkscape:randomized="0"
       d="M 502.94538,266.12377 631.13887,487.98782 503.09572,709.93866 246.85907,710.02546 118.66557,488.16142 246.70873,266.21057 Z"
       transform="matrix(0.07851495,0,0,0.07851495,23.22674,35.615426)" />
    <path
       sodipodi:type="star"
       style="fill:#ededed;stroke:none;stroke-width:0.5;stroke-linejoin:round;paint-order:stroke fill markers"
       id="path1806"
       inkscape:flatsided="true"
       sodipodi:sides="6"
       sodipodi:cx="374.90222"
       sodipodi:cy="488.07462"
       sodipodi:r1="256.23666"
       sodipodi:r2="221.90746"
       sodipodi:arg1="-1.0475363"
       sodipodi:arg2="-0.52393754"
       inkscape:rounded="0"
       inkscape:randomized="0"
       d="M 502.94538,266.12377 631.13887,487.98782 503.09572,709.93866 246.85907,710.02546 118.66557,488.16142 246.70873,266.21057 Z"
       transform="matrix(0.07851495,0,0,0.07851495,89.637197,35.615425)" />
    <path
       sodipodi:type="star"
       style="fill:#121212;fill-opacity:1;stroke:none;stroke-width:0.5;stroke-linejoin:round;paint-order:stroke fill markers"
       id="path1810"
       inkscape:flatsided="true"
       sodipodi:sides="6"
       sodipodi:cx="374.90222"
       sodipodi:cy="488.07462"
       sodipodi:r1="256.23666"
       sodipodi:r2="221.90746"
       sodipodi:arg1="-1.0475363"
       sodipodi:arg2="-0.52393754"
       inkscape:rounded="0"
       inkscape:randomized="0"
       d="M 502.94538,266.12377 631.13887,487.98782 503.09572,709.93866 246.85907,710.02546 118.66557,488.16142 246.70873,266.21057 Z"
       transform="matrix(0.09229715,0,0,0.09229715,18.301692,-9.7193381)" />
    <path
       sodipodi:type="star"
       style="fill:#ededed;stroke:#000000;stroke-width:0.5;stroke-linejoin:round;stroke-opacity:1;paint-order:stroke fill markers"
       id="path1956"
       inkscape:flatsided="true"
       sodipodi:sides="6"
       sodipodi:cx="374.90222"
       sodipodi:cy="488.07462"
       sodipodi:r1="256.23666"
       sodipodi:r2="221.90746"
       sodipodi:arg1="-1.0475363"
       sodipodi:arg2="-0.52393754"
       inkscape:rounded="0"
       inkscape:randomized="0"
       d="M 502.94538,266.12377 631.13887,487.98782 503.09572,709.93866 246.85907,710.02546 118.66557,488.16142 246.70873,266.21057 Z"
       transform="matrix(0.07851495,0,0,0.07851495,23.491322,-2.8815469)" />
    <path
       sodipodi:type="star"
       style="fill:#ededed;stroke:none;stroke-width:0.5;stroke-linejoin:round;stroke-opacity:1;paint-order:stroke fill markers"
       id="path1994"
       inkscape:flatsided="true"
       sodipodi:sides="6"
       sodipodi:cx="374.90222"
       sodipodi:cy="488.07462"
       sodipodi:r1="256.23666"
       sodipodi:r2="221.90746"
       sodipodi:arg1="-1.0475363"
       sodipodi:arg2="-0.52393754"
       inkscape:rounded="0"
       inkscape:randomized="0"
       d="M 502.94538,266.12377 631.13887,487.98782 503.09572,709.93866 246.85907,710.02546 118.66557,488.16142 246.70873,266.21057 Z"
       transform="matrix(0.07851495,0,0,0.07851495,121.91651,16.565414)" />
    <path
       sodipodi:type="star"
       style="fill:#ededed;stroke:none;stroke-width:0.5;stroke-linejoin:round;stroke-opacity:1;paint-order:stroke fill markers"
       id="path1996"
       inkscape:flatsided="true"
       sodipodi:sides="6"
       sodipodi:cx="374.90222"
       sodipodi:cy="488.07462"
       sodipodi:r1="256.23666"
       sodipodi:r2="221.90746"
       sodipodi:arg1="-1.0475363"
       sodipodi:arg2="-0.52393754"
       inkscape:rounded="0"
       inkscape:randomized="0"
       d="M 502.94538,266.12377 631.13887,487.98782 503.09572,709.93866 246.85907,710.02546 118.66557,488.16142 246.70873,266.21057 Z"
       transform="matrix(0.07851495,0,0,0.07851495,187.00441,16.565414)" />
    <path
       sodipodi:type="star"
       style="fill:#ededed;stroke:none;stroke-width:0.5;stroke-linejoin:round;paint-order:stroke fill markers"
       id="path1998"
       inkscape:flatsided="true"
       sodipodi:sides="6"
       sodipodi:cx="374.90222"
       sodipodi:cy="488.07462"
       sodipodi:r1="256.23666"
       sodipodi:r2="221.90746"
       sodipodi:arg1="-1.0475363"
       sodipodi:arg2="-0.52393754"
       inkscape:rounded="0"
       inkscape:randomized="0"
       d="M 502.94538,266.12377 631.13887,487.98782 503.09572,709.93866 246.85907,710.02546 118.66557,488.16142 246.70873,266.21057 Z"
       transform="matrix(0.07851495,0,0,0.07851495,187.269,54.665435)" />
    <path
       sodipodi:type="star"
       style="fill:#ededed;stroke:none;stroke-width:0.5;stroke-linejoin:round;paint-order:stroke fill markers"
       id="path2000"
       inkscape:flatsided="true"
       sodipodi:sides="6"
       sodipodi:cx="374.90222"
       sodipodi:cy="488.07462"
       sodipodi:r1="256.23666"
       sodipodi:r2="221.90746"
       sodipodi:arg1="-1.0475363"
       sodipodi:arg2="-0.52393754"
       inkscape:rounded="0"
       inkscape:randomized="0"
       d="M 502.94538,266.12377 631.13887,487.98782 503.09572,709.93866 246.85907,710.02546 118.66557,488.16142 246.70873,266.21057 Z"
       transform="matrix(0.07851495,0,0,0.07851495,154.46046,35.615426)" />
    <path
       sodipodi:type="star"
       style="fill:#ededed;stroke:none;stroke-width:0.5;stroke-linejoin:round;paint-order:stroke fill markers"
       id="path2002"
       inkscape:flatsided="true"
       sodipodi:sides="6"
       sodipodi:cx="374.90222"
       sodipodi:cy="488.07462"
       sodipodi:r1="256.23666"
       sodipodi:r2="221.90746"
       sodipodi:arg1="-1.0475363"
       sodipodi:arg2="-0.52393754"
       inkscape:rounded="0"
       inkscape:randomized="0"
       d="M 502.94538,266.12377 631.13887,487.98782 503.09572,709.93866 246.85907,710.02546 118.66557,488.16142 246.70873,266.21057 Z"
       transform="matrix(0.07851495,0,0,0.07851495,219.81295,35.615425)" />
    <path
       sodipodi:type="star"
       style="fill:#121212;fill-opacity:1;stroke:none;stroke-width:0.5;stroke-linejoin:round;paint-order:stroke fill markers"
       id="path2004"
       inkscape:flatsided="true"
       sodipodi:sides="6"
       sodipodi:cx="374.90222"
       sodipodi:cy="488.07462"
       sodipodi:r1="256.23666"
       sodipodi:r2="221.90746"
       sodipodi:arg1="-1.0475363"
       sodipodi:arg2="-0.52393754"
       inkscape:rounded="0"
       inkscape:randomized="0"
       d="M 502.94538,266.12377 631.13887,487.98782 503.09572,709.93866 246.85907,710.02546 118.66557,488.16142 246.70873,266.21057 Z"
       transform="matrix(0.09229715,0,0,0.09229715,149.53538,-9.7193381)" />
    <path
       sodipodi:type="star"
       style="fill:#ededed;stroke:#000000;stroke-width:0.5;stroke-linejoin:round;stroke-opacity:1;paint-order:stroke fill markers"
       id="path2006"
       inkscape:flatsided="true"
       sodipodi:sides="6"
       sodipodi:cx="374.90222"
       sodipodi:cy="488.07462"
       sodipodi:r1="256.23666"
       sodipodi:r2="221.90746"
       sodipodi:arg1="-1.0475363"
       sodipodi:arg2="-0.52393754"
       inkscape:rounded="0"
       inkscape:randomized="0"
       d="M 502.94538,266.12377 631.13887,487.98782 503.09572,709.93866 246.85907,710.02546 118.66557,488.16142 246.70873,266.21057 Z"
       transform="matrix(0.07851495,0,0,0.07851495,154.72504,-2.8815469)" />
    <path
       sodipodi:type="star"
       style="fill:#121212;fill-opacity:1;stroke:none;stroke-width:0.5;stroke-linejoin:round;paint-order:stroke fill markers"
       id="path2008"
       inkscape:flatsided="true"
       sodipodi:sides="6"
       sodipodi:cx="374.90222"
       sodipodi:cy="488.07462"
       sodipodi:r1="256.23666"
       sodipodi:r2="221.90746"
       sodipodi:arg1="-1.0475363"
       sodipodi:arg2="-0.52393754"
       inkscape:rounded="0"
       inkscape:randomized="0"
       d="M 502.94538,266.12377 631.13887,487.98782 503.09572,709.93866 246.85907,710.02546 118.66557,488.16142 246.70873,266.21057 Z"
       transform="matrix(0.09229715,0,0,0.09229715,83.918393,-9.7193381)" />
    <path
       sodipodi:type="star"
       style="fill:#ededed;stroke:#000000;stroke-width:0.5;stroke-linejoin:round;stroke-opacity:1;paint-order:stroke fill markers"
       id="path2010"
       inkscape:flatsided="true"
       sodipodi:sides="6"
       sodipodi:cx="374.90222"
       sodipodi:cy="488.07462"
       sodipodi:r1="256.23666"
       sodipodi:r2="221.90746"
       sodipodi:arg1="-1.0475363"
       sodipodi:arg2="-0.52393754"
       inkscape:rounded="0"
       inkscape:randomized="0"
       d="M 502.94538,266.12377 631.13887,487.98782 503.09572,709.93866 246.85907,710.02546 118.66557,488.16142 246.70873,266.21057 Z"
       transform="matrix(0.07851495,0,0,0.07851495,88.922819,-2.3523802)" />
    <path
       sodipodi:type="star"
       style="fill:#ededed;stroke:none;stroke-width:0.5;stroke-linejoin:round;paint-order:stroke fill markers"
       id="path2012"
       inkscape:flatsided="true"
       sodipodi:sides="6"
       sodipodi:cx="374.90222"
       sodipodi:cy="488.07462"
       sodipodi:r1="256.23666"
       sodipodi:r2="221.90746"
       sodipodi:arg1="-1.0475363"
       sodipodi:arg2="-0.52393754"
       inkscape:rounded="0"
       inkscape:randomized="0"
       d="M 502.94538,266.12377 631.13887,487.98782 503.09572,709.93866 246.85907,710.02546 118.66557,488.16142 246.70873,266.21057 Z"
       transform="matrix(0.07851495,0,0,0.07851495,122.1811,54.665435)" />
  </g>
  <g
     inkscape:groupmode="layer"
     id="layer2"
     inkscape:label="white">
    <rect
       style="fill:#121212;fill-opacity:1;stroke:none;stroke-width:0.132292;stroke-linejoin:round;stroke-opacity:1;paint-order:stroke fill markers"
       id="rect9491"
       width="508"
       height="164.04167"
       x="0"
       y="0" />
    <path
       id="path7094-2-4"
       style="fill:#ededed;stroke:none;stroke-width:0.0132292;stroke-linejoin:round;paint-order:stroke fill markers"
       d="m 50.490871,105.95655 -5.07981,8.71372 c -2.82224,4.7978 -5.07983,8.89016 -5.07983,9.10182 0,0.17639 2.18721,4.19798 4.90361,8.88995 l 4.86795,8.57263 h 10.30123 10.26611 l 5.04468,-8.64342 c 3.91584,-6.7381 4.97433,-8.81929 4.72739,-9.31319 -0.17639,-0.35278 -2.46977,-4.40975 -5.08035,-8.99588 l -4.76252,-8.32563 h -10.05422 z" />
    <path
       id="path7094-2-2"
       style="fill:#ededed;stroke:none;stroke-width:0.0132292;stroke-linejoin:round;paint-order:stroke fill markers"
       d="m 429.42718,106.48575 -5.07981,8.71372 c -2.82224,4.7978 -5.07983,8.89016 -5.07983,9.10182 0,0.17639 2.18721,4.19798 4.90361,8.88995 l 4.86795,8.57263 h 10.30123 10.26611 l 5.04468,-8.64342 c 3.91584,-6.7381 4.97433,-8.81929 4.72739,-9.31319 -0.17639,-0.35278 -2.46977,-4.40975 -5.08035,-8.99588 l -4.76252,-8.32563 h -10.05422 z" />
    <path
       style="fill:#ededed;fill-opacity:1;stroke:none;stroke-width:0.132292;stroke-linejoin:round;stroke-opacity:1;paint-order:stroke fill markers"
       id="rect8721"
       width="508"
       height="148.16667"
       x="0"
       y="0"
       clip-path="url(#clipPath8935)"
       sodipodi:type="rect"
       d="M 0,0 H 508 V 148.16667 H 0 Z" />
    <path
       style="fill:#ededed;fill-opacity:1;stroke:none;stroke-width:0.132292;stroke-linejoin:round;stroke-opacity:1;paint-order:stroke fill markers"
       id="rect2497"
       width="508"
       height="137.58333"
       x="0"
       y="0"
       inkscape:label="black"
       clip-path="url(#clipPath8462)"
       inkscape:path-effect="#path-effect8458"
       d="M 0,0 H 508 V 137.58333 H 0 Z"
       sodipodi:type="rect" />
    <path
       id="path1057-3"
       style="fill:#ededed;stroke:none;stroke-width:0.0132292;stroke-linejoin:round;paint-order:stroke fill markers"
       d="m 271.10962,87.841583 -5.07979,8.71368 c -2.82223,4.797787 -5.0798,8.890137 -5.0798,9.101797 0,0.1764 2.18719,4.19798 4.90358,8.88994 l 4.86792,8.57264 h 10.30118 10.26604 l 5.04466,-8.64343 c 3.91583,-6.73809 4.9743,-8.81928 4.72736,-9.31318 -0.17639,-0.35277 -2.46976,-4.40974 -5.08031,-8.995855 l -4.7625,-8.325592 h -10.05417 z" />
    <path
       id="path1051-0"
       style="fill:#ededed;stroke:none;stroke-width:0.0132292;stroke-linejoin:round;paint-order:stroke fill markers"
       d="m 239.57149,69.496967 -2.43396,4.127913 c -1.34056,2.293053 -3.6693,6.278962 -5.18624,8.854239 l -2.71612,4.65708 5.04466,8.819103 5.07979,8.819638 h 10.2309 l 10.23038,-0.0351 4.8333,-8.396415 c 2.68111,-4.586111 4.90316,-8.607675 5.009,-8.889898 0.10583,-0.28222 -2.08112,-4.374409 -4.83278,-9.136909 l -5.00952,-8.642885 -10.12496,-0.105937 z" />
    <path
       id="path1049-9"
       style="fill:#ededed;stroke:none;stroke-width:0.0132292;stroke-linejoin:round;paint-order:stroke fill markers"
       d="m 302.78934,69.391546 -1.94045,3.316076 c -6.35,10.830278 -8.39587,14.393265 -8.39587,14.569655 0,0.282221 8.1492,14.605113 9.38393,16.510123 l 0.84645,1.30484 9.77202,-0.0703 9.77201,-0.0708 4.86844,-8.289965 c 2.64583,-4.550833 5.00907,-8.608155 5.25601,-9.031489 0.3175,-0.670277 -0.24688,-1.834237 -4.51549,-9.313127 l -4.90357,-8.572604 -10.08931,-0.176218 z" />
    <path
       id="path7094-2"
       style="fill:#ededed;stroke:none;stroke-width:0.0132292;stroke-linejoin:round;paint-order:stroke fill markers"
       d="m 239.45635,105.95658 -5.07981,8.71372 c -2.82224,4.7978 -5.07983,8.89016 -5.07983,9.10182 0,0.17639 2.18721,4.19798 4.90361,8.88995 l 4.86795,8.57263 h 10.30123 10.26611 l 5.04468,-8.64342 c 3.91584,-6.7381 4.97433,-8.81929 4.72739,-9.31319 -0.17639,-0.35278 -2.46977,-4.40975 -5.08035,-8.99588 l -4.76252,-8.32563 h -10.05422 z" />
    <path
       id="path1149"
       style="fill:#ededed;stroke:none;stroke-width:0.0132292;stroke-linejoin:round;paint-order:stroke fill markers"
       d="m 460.48093,51.329144 -4.8333,8.290449 c -2.64583,4.586111 -4.90368,8.607537 -5.00951,8.925037 -0.0706,0.35278 1.90524,4.233506 4.83329,9.348785 l 5.00952,8.71367 10.0893,-0.0708 10.05417,-0.10542 5.08031,-8.71367 5.0798,-8.678541 -5.04466,-8.854758 -5.04465,-8.8191 -10.08983,-0.03566 z" />
    <path
       id="path1151"
       style="fill:#ededed;stroke:none;stroke-width:0.0132292;stroke-linejoin:round;paint-order:stroke fill markers"
       d="m 438.67904,33.337473 c -9.80722,0 -9.84243,6.9e-5 -10.33632,0.776179 -1.16416,1.869723 -9.38413,16.15743 -9.59579,16.616041 -0.10584,0.352777 1.72864,3.915971 4.62142,8.960694 2.64583,4.621388 4.93882,8.501754 5.04465,8.642867 0.14112,0.14112 4.69219,0.28216 10.12497,0.28216 l 9.87795,0.0351 5.00951,-8.572593 c 2.78695,-4.727221 5.04465,-8.74851 5.04465,-8.960176 0,-0.246947 -2.2227,-4.303994 -4.97437,-9.101771 l -4.97437,-8.67854 z" />
    <rect
       style="fill:#ededed;fill-opacity:1;stroke:none;stroke-width:0.126792;stroke-linejoin:round;stroke-opacity:1;paint-order:stroke fill markers"
       id="rect6753"
       width="508"
       height="68.052071"
       x="0"
       y="0"
       inkscape:label="white" />
    <path
       id="path1057"
       style="fill:#ededed;stroke:none;stroke-width:0.0132292;stroke-linejoin:round;paint-order:stroke fill markers"
       d="m 113.94716,69.320729 -5.07982,8.71368 c -2.82224,4.79778 -5.07982,8.890104 -5.07982,9.10177 0,0.17639 2.1872,4.197954 4.9036,8.889898 l 4.86795,8.572593 h 10.30124 10.2661 l 5.04468,-8.643388 c 3.91586,-6.738057 4.97433,-8.81924 4.72739,-9.313128 -0.17639,-0.352779 -2.46977,-4.409723 -5.08034,-8.995833 l -4.76253,-8.325592 h -10.05422 z" />
    <path
       id="path1051"
       style="fill:#ededed;stroke:none;stroke-width:0.0132292;stroke-linejoin:round;paint-order:stroke fill markers"
       d="m 82.408957,50.976113 -2.433961,4.127913 c -1.340556,2.293053 -3.669302,6.278962 -5.186246,8.854239 l -2.716115,4.65708 5.044655,8.819103 5.079794,8.819616 h 10.230898 l 10.230398,-0.03514 4.83333,-8.396388 c 2.68112,-4.586111 4.90319,-8.607675 5.00902,-8.889898 0.10583,-0.28222 -2.08113,-4.374409 -4.83281,-9.136909 l -5.00954,-8.642885 -10.124977,-0.105937 z" />
    <path
       id="path1049"
       style="fill:#ededed;stroke:none;stroke-width:0.0132292;stroke-linejoin:round;paint-order:stroke fill markers"
       d="m 145.62706,50.870692 -1.94046,3.316076 c -6.35003,10.830278 -8.39592,14.393265 -8.39592,14.569655 0,0.282221 8.14925,14.605104 9.38398,16.510104 l 0.84647,1.30483 9.77204,-0.07028 9.77201,-0.0708 4.86844,-8.289936 c 2.64583,-4.550833 5.00907,-8.608155 5.25601,-9.031489 0.3175,-0.670277 -0.24688,-1.834237 -4.51549,-9.313127 l -4.90357,-8.572604 -10.08931,-0.176218 z" />
    <path
       id="path1043"
       style="fill:#ededed;stroke:none;stroke-width:0.0132292;stroke-linejoin:round;paint-order:stroke fill markers"
       d="m 63.676221,32.561213 -4.938718,8.537463 c -2.71639,4.727224 -4.974098,8.78403 -5.044655,9.030976 -0.105833,0.493887 8.678024,16.298059 9.736358,17.53278 0.49389,0.564446 1.340591,0.599723 10.442258,0.529167 l 9.913091,-0.105421 5.150589,-8.819616 5.18573,-8.819616 -1.022675,-1.763718 c -0.564446,-0.9525 -2.822292,-4.903679 -5.009515,-8.71368 l -3.95118,-6.985104 h -3.704167 c -2.04611,0 -6.632051,-0.105524 -10.230385,-0.211357 z" />
    <path
       id="path7072"
       style="fill:#ededed;stroke:none;stroke-width:0.0132292;stroke-linejoin:round;paint-order:stroke fill markers"
       d="m 176.91839,69.320729 -5.07982,8.71368 c -2.82224,4.79778 -5.07982,8.890104 -5.07982,9.10177 0,0.17639 2.1872,4.197954 4.9036,8.889898 l 4.86795,8.572593 h 10.30124 10.2661 l 5.04468,-8.643388 c 3.91585,-6.738057 4.97433,-8.81924 4.72739,-9.313128 -0.17639,-0.352779 -2.46977,-4.409723 -5.08034,-8.995833 l -4.76253,-8.325592 h -10.05422 z" />
    <path
       id="path7074"
       style="fill:#ededed;stroke:none;stroke-width:0.0132292;stroke-linejoin:round;paint-order:stroke fill markers"
       d="m 145.38008,50.976113 -2.43397,4.127913 c -1.34056,2.293053 -3.66932,6.278962 -5.18628,8.854239 l -2.71613,4.65708 5.04469,8.819103 5.07982,8.819616 h 10.23096 l 10.23044,-0.03514 4.83333,-8.396388 c 2.68112,-4.586111 4.90319,-8.607675 5.00902,-8.889898 0.10583,-0.28222 -2.08113,-4.374409 -4.83281,-9.136909 l -5.00954,-8.642885 -10.12502,-0.105937 z" />
    <path
       id="path1153"
       style="fill:#ededed;stroke:none;stroke-width:0.0132292;stroke-linejoin:round;paint-order:stroke fill markers"
       d="m 302.40119,32.279145 -2.50476,4.233333 c -2.71639,4.656667 -7.44381,12.770589 -7.6202,13.08809 -0.0706,0.105833 2.15191,4.162779 4.90357,8.995833 l 5.04517,8.784465 h 10.19525 10.19525 l 5.00951,-8.53745 5.00899,-8.572603 -5.15006,-8.995834 -5.1506,-8.995834 h -9.98389 z" />
    <path
       id="path1147"
       style="fill:#ededed;stroke:none;stroke-width:0.0132292;stroke-linejoin:round;paint-order:stroke fill markers"
       d="m 113.80597,32.279145 -5.00951,8.643398 c -2.78695,4.727224 -5.04465,8.783789 -5.04465,8.960179 0,0.17639 2.2227,4.198056 4.97437,8.995834 l 4.97437,8.67853 h 10.15959 10.1601 l 4.69222,-8.043427 c 2.57528,-4.409723 4.86799,-8.325626 5.11494,-8.71368 0.42333,-0.670279 2e-4,-1.5875 -4.55063,-9.525 l -5.04465,-8.819103 -10.2309,-0.0708 z" />
    <path
       id="path1145"
       style="fill:#ededed;stroke:none;stroke-width:0.0132292;stroke-linejoin:round;paint-order:stroke fill markers"
       d="m 364.98394,32.455876 -5.04465,8.678025 c -3.81,6.561667 -5.00944,8.855033 -4.7625,9.313643 0.1411,0.35278 2.43424,4.339064 5.00951,8.889897 l 4.7625,8.290439 9.84229,0.282153 c 8.0786,0.21167 9.94841,0.17618 10.30118,-0.211873 0.45861,-0.52917 9.13715,-15.310611 9.73688,-16.651168 0.3175,-0.705556 -0.31779,-2.010558 -4.69222,-9.595282 l -5.04466,-8.819616 -10.05416,-0.0708 z" />
    <path
       id="path1141"
       style="fill:#ededed;stroke:none;stroke-width:0.0132292;stroke-linejoin:round;paint-order:stroke fill markers"
       d="m 396.38099,13.935041 -4.93872,8.50181 c -2.71639,4.691944 -4.97408,8.643226 -5.04465,8.819616 -0.0706,0.17639 2.15191,4.268576 4.90358,9.136909 l 5.04465,8.819103 h 10.12497 10.15958 l 5.08031,-8.748821 5.11493,-8.71368 -0.81132,-1.410769 c -0.42333,-0.77611 -2.71618,-4.798052 -5.07979,-8.925552 l -4.33927,-7.478616 h -10.0893 z" />
    <path
       id="path1139"
       style="fill:#ededed;stroke:none;stroke-width:0.0132292;stroke-linejoin:round;paint-order:stroke fill markers"
       d="M 208.31546,13.935041 203.2,22.7898 l -5.15058,8.8191 4.97437,8.713682 5.00951,8.713679 3.13935,0.282155 c 1.76388,0.14111 6.34996,0.211494 10.19524,0.176215 l 7.0559,-0.105421 5.04465,-8.67854 5.04466,-8.67854 -5.00952,-8.8191 -5.04465,-8.819616 -2.82205,-0.247015 c -1.55222,-0.105834 -6.06778,-0.211358 -10.05417,-0.211358 z" />
    <path
       id="path1135"
       style="fill:#ededed;stroke:none;stroke-width:0.0132292;stroke-linejoin:round;paint-order:stroke fill markers"
       d="m 82.302981,13.935041 -4.691703,8.007782 c -2.57528,4.445001 -4.868506,8.360765 -5.115452,8.748822 -0.423333,0.635 0.07073,1.658054 4.586285,9.525 l 5.044652,8.819616 10.195244,0.0708 10.195243,0.105421 4.93872,-8.536948 c 2.71639,-4.656667 4.9741,-8.713749 5.04465,-8.960695 0.0706,-0.246943 -2.11652,-4.30375 -4.79763,-9.030973 l -4.90358,-8.572604 -10.265533,-0.105936 z" />
    <path
       id="path1133"
       style="fill:#ededed;stroke:none;stroke-width:0.0132292;stroke-linejoin:round;paint-order:stroke fill markers"
       d="m 333.93932,13.511295 -4.7625,8.220171 c -2.61057,4.515557 -4.9388,8.536845 -5.18573,8.960179 -0.35277,0.670277 0.17629,1.763887 4.65656,9.525 l 5.04465,8.819616 9.84282,0.105937 9.87795,0.141076 5.18573,-8.925553 c 4.445,-7.690557 5.11514,-9.031076 4.79764,-9.666076 -0.21167,-0.388057 -2.46938,-4.374103 -5.04465,-8.819103 l -4.65656,-8.114232 -9.87796,-0.10542 z" />
    <path
       id="path7076"
       style="fill:#ededed;stroke:none;stroke-width:0.0132292;stroke-linejoin:round;paint-order:stroke fill markers"
       d="m 208.59829,50.870692 -1.94046,3.316076 c -6.35003,10.830278 -8.39592,14.393265 -8.39592,14.569655 0,0.282221 8.14925,14.605104 9.38398,16.510104 l 0.84647,1.30483 9.77203,-0.07028 9.77201,-0.0708 4.86844,-8.289936 c 2.64583,-4.550833 5.00907,-8.608155 5.25601,-9.031489 0.3175,-0.670277 -0.24688,-1.834237 -4.51549,-9.313127 l -4.90357,-8.572604 -10.08931,-0.176218 z" />
    <path
       id="path7078"
       style="fill:#ededed;stroke:none;stroke-width:0.0132292;stroke-linejoin:round;paint-order:stroke fill markers"
       d="m 176.91839,32.561213 -4.93874,8.537463 c -2.71641,4.727224 -4.97413,8.78403 -5.04469,9.030976 -0.10583,0.493887 8.67807,16.298059 9.73641,17.53278 0.4939,0.564446 1.3406,0.599723 10.44232,0.529167 l 9.91315,-0.105421 5.15062,-8.819616 5.18576,-8.819616 -1.02268,-1.763718 c -0.56445,-0.9525 -2.82231,-4.903679 -5.00955,-8.71368 l -3.9512,-6.985104 h -3.70419 c -2.04612,0 -6.63209,-0.105524 -10.23044,-0.211357 z" />
    <path
       id="path7094"
       style="fill:#ededed;stroke:none;stroke-width:0.0132292;stroke-linejoin:round;paint-order:stroke fill markers"
       d="m 82.29382,87.435691 -5.07982,8.71368 c -2.82224,4.797779 -5.07982,8.890109 -5.07982,9.101769 0,0.17639 2.1872,4.19796 4.9036,8.8899 l 4.86795,8.57262 h 10.30124 10.26611 l 5.04471,-8.64341 c 3.91587,-6.73806 4.97436,-8.81924 4.72742,-9.31313 -0.17639,-0.35278 -2.46979,-4.40973 -5.08037,-8.995837 l -4.76256,-8.325592 H 92.34805 Z" />
    <path
       id="path1069"
       style="fill:#ededed;stroke:none;stroke-width:0.0132292;stroke-linejoin:round;paint-order:stroke fill markers"
       d="m 460.37538,87.735832 -4.93872,8.50181 c -2.71638,4.691918 -4.9741,8.643198 -5.04465,8.819588 -0.0706,0.17639 2.15191,4.26858 4.90358,9.13691 l 5.04465,8.8191 h 10.08931 10.05417 l 4.7625,-8.14885 c 2.61055,-4.51556 4.9034,-8.46684 5.07979,-8.81962 0.24694,-0.49389 -0.81101,-2.61069 -4.72685,-9.489838 l -5.00951,-8.8191 h -10.12496 z" />
    <path
       id="path1067"
       style="fill:#ededed;stroke:none;stroke-width:0.0132292;stroke-linejoin:round;paint-order:stroke fill markers"
       d="m 333.9393,87.735832 -2.50475,4.23333 c -1.34056,2.32833 -3.56289,6.137957 -4.93872,8.430988 -1.34056,2.32834 -2.46962,4.4099 -2.46962,4.58628 0,0.21167 2.25771,4.37466 5.04466,9.20771 l 5.00951,8.8191 h 10.05417 l 10.05417,-0.0351 2.8577,-5.00951 c 1.5875,-2.75167 3.88035,-6.70271 5.0798,-8.74882 l 2.15232,-3.77445 -5.04517,-8.854738 -5.04465,-8.85475 h -10.12445 z" />
    <path
       id="path1063"
       style="fill:#ededed;stroke:none;stroke-width:0.0132292;stroke-linejoin:round;paint-order:stroke fill markers"
       d="m 445.62914,69.708502 c -6.2089,-0.45861 -17.07459,-0.35267 -17.42737,0.10594 -0.49389,0.635 -9.24274,15.66354 -9.66607,16.61604 -0.3175,0.70556 0.31715,1.97545 4.58576,9.41907 l 4.97438,8.642858 2.57503,0.21187 c 1.37583,0.14111 5.9622,0.24688 10.12497,0.28215 l 7.58454,0.0352 5.2214,-8.960158 5.18572,-8.9607 -4.93871,-8.5726 -4.93924,-8.60774 z" />
    <path
       id="path1061"
       style="fill:#ededed;stroke:none;stroke-width:0.0132292;stroke-linejoin:round;paint-order:stroke fill markers"
       d="m 365.47795,69.391212 -4.93923,8.50181 c -2.71639,4.69194 -4.9741,8.71375 -5.04466,8.96069 -0.0705,0.28222 2.11653,4.33941 4.79764,9.06663 l 4.9041,8.572068 10.19524,0.0708 10.19524,0.10594 5.04466,-8.678518 5.04465,-8.67854 -5.04465,-8.8899 -5.08031,-8.85475 -10.01851,-0.10542 z" />
    <path
       id="path1055"
       style="fill:#ededed;stroke:none;stroke-width:0.0132292;stroke-linejoin:round;paint-order:stroke fill markers"
       d="m 396.76906,51.046592 -4.83278,8.29045 c -2.64583,4.58611 -4.90368,8.60754 -5.00951,8.92504 -0.0706,0.35278 1.90473,4.23351 4.83278,9.34879 l 5.00951,8.71367 h 10.08931 10.12497 l 4.93871,-8.5018 c 2.71639,-4.65667 4.93923,-8.71375 4.93923,-8.9607 0,-0.28222 -2.22284,-4.37441 -4.93923,-9.13691 l -4.93871,-8.67854 h -10.08931 z" />
    <path
       id="path1053"
       style="fill:#ededed;stroke:none;stroke-width:0.0132292;stroke-linejoin:round;paint-order:stroke fill markers"
       d="m 333.9393,51.046592 -1.48156,2.54042 c -3.52778,6.10305 -7.47872,12.87635 -8.11372,13.89941 l -0.6351,1.05833 5.00951,8.8191 5.04466,8.78448 10.19524,0.0703 10.23039,0.10593 5.04465,-8.71367 5.04517,-8.67803 -5.08031,-8.85476 -5.0798,-8.85476 -10.0893,-0.10593 z" />
    <path
       id="path8194"
       style="fill:#ededed;stroke:none;stroke-width:0.0132292;stroke-linejoin:round;paint-order:stroke fill markers"
       d="m 271.39159,51.505394 -5.07982,8.71368 c -2.82224,4.79778 -5.07982,8.890104 -5.07982,9.10177 0,0.17639 2.1872,4.197954 4.9036,8.889898 l 4.86795,8.572593 h 10.30124 10.2661 l 5.04468,-8.643388 c 3.91585,-6.738057 4.97433,-8.81924 4.72739,-9.313128 -0.17639,-0.352779 -2.46977,-4.409723 -5.08034,-8.995833 l -4.76253,-8.325592 h -10.05422 z" />
    <path
       id="path8356"
       style="fill:#ededed;stroke:none;stroke-width:0.0132292;stroke-linejoin:round;paint-order:stroke fill markers"
       d="m 50.447054,69.320729 -5.079799,8.71368 c -2.822225,4.79778 -5.079793,8.890104 -5.079793,9.10177 0,0.17639 2.187188,4.197954 4.903573,8.889898 l 4.867932,8.572593 H 60.36015 70.626199 l 5.044659,-8.643388 c 3.915839,-6.738057 4.974303,-8.81924 4.727366,-9.313128 -0.17639,-0.352779 -2.469758,-4.409723 -5.080313,-8.995833 L 70.555399,69.320729 H 60.50123 Z" />
    <path
       id="path8358"
       style="fill:#ededed;stroke:none;stroke-width:0.0132292;stroke-linejoin:round;paint-order:stroke fill markers"
       d="m 18.90892,50.976113 -2.433961,4.127913 c -1.340556,2.293053 -3.669302,6.278962 -5.186246,8.854239 l -2.7161141,4.65708 5.0446541,8.819103 5.079794,8.819616 h 10.230898 l 10.230383,-0.03514 4.833303,-8.396388 c 2.681114,-4.586111 4.903172,-8.607675 5.009002,-8.889898 0.10583,-0.28222 -2.081118,-4.374409 -4.832792,-9.136909 L 39.158328,51.152844 29.033366,51.046907 Z" />
    <path
       id="path8360"
       style="fill:#ededed;stroke:none;stroke-width:0.0132292;stroke-linejoin:round;paint-order:stroke fill markers"
       d="m 82.126792,50.870692 -1.940448,3.316076 c -6.349994,10.830278 -8.395878,14.393265 -8.395878,14.569655 0,0.282221 8.149208,14.605104 9.383932,16.510104 l 0.846464,1.30483 9.771986,-0.07028 9.771962,-0.0708 4.86844,-8.289936 c 2.64583,-4.550833 5.00907,-8.608155 5.25601,-9.031489 0.3175,-0.670277 -0.24688,-1.834237 -4.51549,-9.313127 L 102.2702,51.223121 92.180935,51.046903 Z" />
    <path
       id="path8362"
       style="fill:#ededed;stroke:none;stroke-width:0.0132292;stroke-linejoin:round;paint-order:stroke fill markers"
       d="m 18.793783,87.435691 -5.07982,8.71368 c -2.82224,4.797779 -5.0798191,8.890109 -5.0798191,9.101769 0,0.17639 2.1871991,4.19796 4.9035991,8.8899 l 4.86795,8.57262 h 10.30124 10.266098 l 5.04468,-8.64341 c 3.915858,-6.73806 4.974342,-8.81924 4.727402,-9.31313 -0.176387,-0.35278 -2.469775,-4.40973 -5.080349,-8.995837 L 38.902231,87.435691 H 28.848013 Z" />
  </g>
  <g
     transform="matrix(0.02645833,0,0,-0.02645833,-92.868738,185.36705)"
     fill="#000000"
     stroke="none"
     id="g2462"
     style="fill:#121212;fill-opacity:1"
     inkscape:label="hexagon" />
</svg>
