<?xml version="1.0" encoding="UTF-8" standalone="no"?>
<!-- Created with Inkscape (http://www.inkscape.org/) -->

<svg
   width="1935.5945"
   height="450.35385"
   viewBox="0 0 512.12605 119.15613"
   version="1.1"
   id="svg5"
   xmlns="http://www.w3.org/2000/svg"
   xmlns:svg="http://www.w3.org/2000/svg">

  <defs
     id="defs2">
    <filter
       id="mask-powermask-path-effect3126_inverse"
       style="color-interpolation-filters:sRGB"
       height="100"
       width="100"
       x="-50"
       y="-50">
      <feColorMatrix
         id="mask-powermask-path-effect3126_primitive1"
         values="1"
         type="saturate"
         result="fbSourceGraphic" />
      <feColorMatrix
         id="mask-powermask-path-effect3126_primitive2"
         values="-1 0 0 0 1 0 -1 0 0 1 0 0 -1 0 1 0 0 0 1 0 "
         in="fbSourceGraphic" />
    </filter>
    <clipPath
       clipPathUnits="userSpaceOnUse"
       id="clipPath8454">
      <path
         id="path8456"
         style="display:none;fill:#ededed;stroke:#000000;stroke-width:0.0132292;stroke-linejoin:round;paint-order:stroke fill markers"
         d="m 491.84287,33.126114 c -0.1411,0.211669 -2.43432,4.162708 -5.11545,8.748821 l -4.83277,8.36073 5.15059,8.995833 5.18573,9.030976 h 9.94822 9.94823 l 5.00954,-8.607746 c 2.75164,-4.72722 5.00949,-8.784166 5.00949,-8.995833 0,-0.388054 -9.34852,-16.93323 -9.80715,-17.356566 -0.4586,-0.423331 -20.17893,-0.564269 -20.49643,-0.176215 z" />
    </clipPath>
    <clipPath
       clipPathUnits="userSpaceOnUse"
       id="clipPath8462">
      <path
         id="path8464"
         style="fill:#ededed;stroke:#000000;stroke-width:0.0132292;stroke-linejoin:round;paint-order:stroke fill markers"
         d="m -12.982122,69.638632 c -0.14111,0.211667 -2.434342,4.162706 -5.115453,8.748819 l -4.832782,8.36073 5.150592,8.995833 5.185733,9.030996 h 9.9482314 9.9482255 l 5.0095181,-8.607766 c 2.75166,-4.72722 5.00951,-8.784166 5.00951,-8.995833 0,-0.388054 -9.3485388,-16.93323 -9.8071585,-17.356566 C 7.0556848,69.391514 -12.664622,69.250576 -12.982122,69.638632 Z" />
    </clipPath>
    <clipPath
       clipPathUnits="userSpaceOnUse"
       id="clipPath8935">
      <path
         id="path8937"
         style="fill:#ededed;stroke:#000000;stroke-width:0.0132292;stroke-linejoin:round;paint-order:stroke fill markers"
         d="m 491.84287,69.638635 c -0.1411,0.211669 -2.43432,4.162708 -5.11545,8.748821 l -4.83277,8.36073 5.15059,8.995833 5.18573,9.031001 h 9.94822 9.94823 l 5.00954,-8.60777 c 2.75164,-4.727221 5.00949,-8.784167 5.00949,-8.995834 0,-0.388054 -9.34852,-16.93323 -9.80715,-17.356566 -0.4586,-0.423333 -20.17893,-0.564269 -20.49643,-0.176215 z" />
    </clipPath>
  </defs>
  <g
     id="layer1"
     style="display:none"
     transform="translate(0.18335461)">
    <rect
       style="fill:#121212;fill-opacity:1;stroke:none;stroke-width:0.132292;stroke-linejoin:round;paint-order:stroke fill markers"
       id="rect1020"
       width="508"
       height="116.41666"
       x="0"
       y="0"
       rx="0" />
    <rect
       style="fill:#ededed;stroke:#000000;stroke-width:0.132292;stroke-linejoin:round;paint-order:stroke fill markers"
       id="rect846"
       width="508"
       height="54.364216"
       x="0"
       y="0"
       rx="0" />
    <path
       style="fill:#ededed;stroke:none;stroke-width:0.5;stroke-linejoin:round;stroke-opacity:1;paint-order:stroke fill markers"
       id="path896"
       d="M 502.94538,266.12377 631.13887,487.98782 503.09572,709.93866 246.85907,710.02546 118.66557,488.16142 246.70873,266.21057 Z"
       transform="matrix(0.07851495,0,0,0.07851495,-9.3170206,16.036247)" />
    <path
       style="fill:#ededed;stroke:none;stroke-width:0.5;stroke-linejoin:round;stroke-opacity:1;paint-order:stroke fill markers"
       id="path996"
       d="M 502.94538,266.12377 631.13887,487.98782 503.09572,709.93866 246.85907,710.02546 118.66557,488.16142 246.70873,266.21057 Z"
       transform="matrix(0.07851495,0,0,0.07851495,56.299676,16.036247)" />
    <path
       style="fill:#ededed;stroke:none;stroke-width:0.5;stroke-linejoin:round;paint-order:stroke fill markers"
       id="path1369"
       d="M 502.94538,266.12377 631.13887,487.98782 503.09572,709.93866 246.85907,710.02546 118.66557,488.16142 246.70873,266.21057 Z"
       transform="matrix(0.07851495,0,0,0.07851495,56.56426,54.665435)" />
    <path
       style="fill:#ededed;stroke:none;stroke-width:0.5;stroke-linejoin:round;paint-order:stroke fill markers"
       id="path1371"
       d="M 502.94538,266.12377 631.13887,487.98782 503.09572,709.93866 246.85907,710.02546 118.66557,488.16142 246.70873,266.21057 Z"
       transform="matrix(0.07851495,0,0,0.07851495,23.22674,35.615426)" />
    <path
       style="fill:#ededed;stroke:none;stroke-width:0.5;stroke-linejoin:round;paint-order:stroke fill markers"
       id="path1806"
       d="M 502.94538,266.12377 631.13887,487.98782 503.09572,709.93866 246.85907,710.02546 118.66557,488.16142 246.70873,266.21057 Z"
       transform="matrix(0.07851495,0,0,0.07851495,89.637197,35.615425)" />
    <path
       style="fill:#121212;fill-opacity:1;stroke:none;stroke-width:0.5;stroke-linejoin:round;paint-order:stroke fill markers"
       id="path1810"
       d="M 502.94538,266.12377 631.13887,487.98782 503.09572,709.93866 246.85907,710.02546 118.66557,488.16142 246.70873,266.21057 Z"
       transform="matrix(0.09229715,0,0,0.09229715,18.301692,-9.7193381)" />
    <path
       style="fill:#ededed;stroke:#000000;stroke-width:0.5;stroke-linejoin:round;stroke-opacity:1;paint-order:stroke fill markers"
       id="path1956"
       d="M 502.94538,266.12377 631.13887,487.98782 503.09572,709.93866 246.85907,710.02546 118.66557,488.16142 246.70873,266.21057 Z"
       transform="matrix(0.07851495,0,0,0.07851495,23.491322,-2.8815469)" />
    <path
       style="fill:#ededed;stroke:none;stroke-width:0.5;stroke-linejoin:round;stroke-opacity:1;paint-order:stroke fill markers"
       id="path1994"
       d="M 502.94538,266.12377 631.13887,487.98782 503.09572,709.93866 246.85907,710.02546 118.66557,488.16142 246.70873,266.21057 Z"
       transform="matrix(0.07851495,0,0,0.07851495,121.91651,16.565414)" />
    <path
       style="fill:#ededed;stroke:none;stroke-width:0.5;stroke-linejoin:round;stroke-opacity:1;paint-order:stroke fill markers"
       id="path1996"
       d="M 502.94538,266.12377 631.13887,487.98782 503.09572,709.93866 246.85907,710.02546 118.66557,488.16142 246.70873,266.21057 Z"
       transform="matrix(0.07851495,0,0,0.07851495,187.00441,16.565414)" />
    <path
       style="fill:#ededed;stroke:none;stroke-width:0.5;stroke-linejoin:round;paint-order:stroke fill markers"
       id="path1998"
       d="M 502.94538,266.12377 631.13887,487.98782 503.09572,709.93866 246.85907,710.02546 118.66557,488.16142 246.70873,266.21057 Z"
       transform="matrix(0.07851495,0,0,0.07851495,187.269,54.665435)" />
    <path
       style="fill:#ededed;stroke:none;stroke-width:0.5;stroke-linejoin:round;paint-order:stroke fill markers"
       id="path2000"
       d="M 502.94538,266.12377 631.13887,487.98782 503.09572,709.93866 246.85907,710.02546 118.66557,488.16142 246.70873,266.21057 Z"
       transform="matrix(0.07851495,0,0,0.07851495,154.46046,35.615426)" />
    <path
       style="fill:#ededed;stroke:none;stroke-width:0.5;stroke-linejoin:round;paint-order:stroke fill markers"
       id="path2002"
       d="M 502.94538,266.12377 631.13887,487.98782 503.09572,709.93866 246.85907,710.02546 118.66557,488.16142 246.70873,266.21057 Z"
       transform="matrix(0.07851495,0,0,0.07851495,219.81295,35.615425)" />
    <path
       style="fill:#121212;fill-opacity:1;stroke:none;stroke-width:0.5;stroke-linejoin:round;paint-order:stroke fill markers"
       id="path2004"
       d="M 502.94538,266.12377 631.13887,487.98782 503.09572,709.93866 246.85907,710.02546 118.66557,488.16142 246.70873,266.21057 Z"
       transform="matrix(0.09229715,0,0,0.09229715,149.53538,-9.7193381)" />
    <path
       style="fill:#ededed;stroke:#000000;stroke-width:0.5;stroke-linejoin:round;stroke-opacity:1;paint-order:stroke fill markers"
       id="path2006"
       d="M 502.94538,266.12377 631.13887,487.98782 503.09572,709.93866 246.85907,710.02546 118.66557,488.16142 246.70873,266.21057 Z"
       transform="matrix(0.07851495,0,0,0.07851495,154.72504,-2.8815469)" />
    <path
       style="fill:#121212;fill-opacity:1;stroke:none;stroke-width:0.5;stroke-linejoin:round;paint-order:stroke fill markers"
       id="path2008"
       d="M 502.94538,266.12377 631.13887,487.98782 503.09572,709.93866 246.85907,710.02546 118.66557,488.16142 246.70873,266.21057 Z"
       transform="matrix(0.09229715,0,0,0.09229715,83.918393,-9.7193381)" />
    <path
       style="fill:#ededed;stroke:#000000;stroke-width:0.5;stroke-linejoin:round;stroke-opacity:1;paint-order:stroke fill markers"
       id="path2010"
       d="M 502.94538,266.12377 631.13887,487.98782 503.09572,709.93866 246.85907,710.02546 118.66557,488.16142 246.70873,266.21057 Z"
       transform="matrix(0.07851495,0,0,0.07851495,88.922819,-2.3523802)" />
    <path
       style="fill:#ededed;stroke:none;stroke-width:0.5;stroke-linejoin:round;paint-order:stroke fill markers"
       id="path2012"
       d="M 502.94538,266.12377 631.13887,487.98782 503.09572,709.93866 246.85907,710.02546 118.66557,488.16142 246.70873,266.21057 Z"
       transform="matrix(0.07851495,0,0,0.07851495,122.1811,54.665435)" />
  </g>
  <g
     id="layer2"
     transform="translate(0.18335461)">
    <rect
       style="fill:#121212;fill-opacity:1;stroke:none;stroke-width:0.113074;stroke-linejoin:round;stroke-opacity:1;paint-order:stroke fill markers"
       id="rect9491"
       width="512.24072"
       height="118.84995"
       x="0"
       y="0.38037363" />
    <path
       id="path10785-0-0"
       style="fill:#ededed;stroke:#000000;stroke-width:0.0132292;stroke-linejoin:round;paint-order:stroke fill markers"
       d="m 9.7012193,42.74689 -4.9392394,8.572604 c -2.7164,4.691943 -4.93871991,8.713748 -4.93871991,8.960694 0,0.246944 2.22231991,4.303614 4.93871991,9.066114 l 4.9392394,8.67854 10.1952397,-0.10593 10.16011,-0.0708 5.07979,-8.67802 5.04465,-8.678543 -5.00952,-8.783961 -5.04465,-8.784476 -10.23038,-0.07028 z" />
    <path
       id="path1119-2"
       style="fill:#ededed;stroke:#000000;stroke-width:0.0132292;stroke-linejoin:round;paint-order:stroke fill markers"
       d="m 418.5173,61.118351 -5.15059,8.819616 -5.11493,8.819616 4.97385,8.819103 5.00952,8.784477 10.23038,0.03514 h 10.23091 l 5.04465,-8.607743 c 2.75166,-4.7625 5.00951,-8.749165 5.00951,-8.925555 0,-0.14111 -2.25785,-4.197917 -5.00951,-9.030973 l -5.00952,-8.71368 h -10.0893 z" />
    <path
       id="path1101-1"
       style="fill:#ededed;stroke:#000000;stroke-width:0.0132292;stroke-linejoin:round;paint-order:stroke fill markers"
       d="m 449.89206,6.6809421 c -0.1764,0.2116667 -2.25782,3.7042109 -4.62143,7.7964329 -2.3636,4.056947 -4.58594,7.902224 -4.93871,8.466667 l -0.67024,1.058334 5.04465,8.819103 5.04465,8.819616 10.19525,0.0708 10.19524,0.105421 4.93871,-8.536949 c 2.7164,-4.691944 4.97412,-8.713748 5.04465,-8.960695 0.10584,-0.388054 -9.10135,-16.8627895 -9.73635,-17.4625122 -0.4586,-0.4233327 -20.17892,-0.5642704 -20.49642,-0.1762147 z" />
    <path
       id="path10787-5"
       style="fill:#ededed;stroke:#000000;stroke-width:0.0132292;stroke-linejoin:round;paint-order:stroke fill markers"
       d="m 449.85692,43.228595 -1.05833,1.834512 c -0.56444,1.023057 -2.82215,4.938959 -5.04465,8.713682 l -3.98685,6.879168 5.08032,8.925036 5.11492,8.925553 h 10.08983 10.08931 l 4.93871,-8.537462 c 2.7164,-4.656667 4.97412,-8.678093 5.04465,-8.925039 0.0353,-0.211667 -2.15151,-4.303991 -4.86791,-9.101771 l -5.00951,-8.713679 h -10.19525 z" />
    <path
       id="path10789-1"
       style="fill:#ededed;stroke:#000000;stroke-width:0.0132292;stroke-linejoin:round;paint-order:stroke fill markers"
       d="m 481.35991,24.883978 -5.04465,8.643398 c -3.91584,6.738057 -4.9743,8.819241 -4.72737,9.313128 0.1764,0.35278 2.46923,4.409723 5.07979,8.995834 l 4.7625,8.325591 h 10.05417 10.05417 l 5.04465,-8.642885 c 2.75166,-4.7625 5.00951,-8.819685 5.00951,-9.066628 0,-0.246946 -2.22247,-4.268373 -4.90357,-8.92504 l -4.90358,-8.466667 -10.19524,-0.105936 z" />
    <path
       id="path1143"
       style="fill:#ededed;stroke:#000000;stroke-width:0.0132292;stroke-linejoin:round;paint-order:stroke fill markers"
       d="m 229.60531,61.259943 c -0.14112,0.211667 -2.43434,4.162708 -5.11546,8.748819 l -4.83278,8.360731 5.15059,8.995833 5.18573,9.030976 h 9.94823 9.94824 l 5.00951,-8.607745 c 2.75167,-4.727221 5.00951,-8.784168 5.00951,-8.995834 0,-0.388054 -9.34854,-16.933231 -9.80715,-17.356565 -0.45861,-0.423333 -20.17892,-0.564271 -20.49642,-0.176215 z" />
    <path
       id="path1141"
       style="fill:#ededed;stroke:#000000;stroke-width:0.0132292;stroke-linejoin:round;paint-order:stroke fill markers"
       d="m 355.3351,61.118864 -4.93871,8.50181 c -2.7164,4.691944 -4.97409,8.643226 -5.04465,8.819616 -0.0706,0.17639 2.15191,4.268576 4.90357,9.136909 l 5.04465,8.819103 h 10.12497 10.15958 l 5.08032,-8.748821 5.11493,-8.71368 -0.81132,-1.410769 c -0.42334,-0.77611 -2.71619,-4.798052 -5.07979,-8.925552 l -4.33927,-7.478616 h -10.08931 z" />
    <path
       id="path1137"
       style="fill:#ededed;stroke:#000000;stroke-width:0.0132292;stroke-linejoin:round;paint-order:stroke fill markers"
       d="m 104.40467,61.118864 -5.150574,8.854759 -5.150536,8.8191 5.044603,8.784476 5.009497,8.819103 10.19524,-0.10542 10.19524,-0.0708 5.04466,-8.642886 5.04465,-8.643398 -0.67024,-1.058333 c -0.35278,-0.564446 -2.64601,-4.585873 -5.11545,-8.92504 l -4.48035,-7.831564 h -9.98337 z" />
    <path
       id="path1131"
       style="fill:#ededed;stroke:#000000;stroke-width:0.0132292;stroke-linejoin:round;paint-order:stroke fill markers"
       d="m 145.89103,42.845045 c -7.79639,-0.07056 -10.16017,0.03493 -10.40712,0.352433 -0.35278,0.45861 -8.78403,14.887362 -9.56014,16.369028 -0.35278,0.670277 0.24698,1.869721 4.62143,9.525001 l 5.04465,8.783961 h 10.19524 10.19525 l 5.00951,-8.642885 5.04465,-8.642885 -1.12861,-1.940449 c -0.59972,-1.058334 -2.85743,-5.044896 -5.04465,-8.819616 l -3.91604,-6.879167 z" />
    <path
       id="path1127"
       style="fill:#ededed;stroke:#000000;stroke-width:0.0132292;stroke-linejoin:round;paint-order:stroke fill markers"
       d="m 323.76184,42.774248 -1.05833,1.834512 c -0.56444,1.023057 -2.82215,4.938959 -5.04465,8.713682 l -3.98685,6.879168 5.08032,8.925036 5.11492,8.925553 h 10.08983 10.08931 l 4.93871,-8.537462 c 2.7164,-4.656667 4.97412,-8.678093 5.04465,-8.925039 0.0353,-0.211667 -2.15151,-4.303991 -4.86791,-9.101771 l -5.00951,-8.713679 h -10.19525 z" />
    <path
       id="path1125"
       style="fill:#ededed;stroke:#000000;stroke-width:0.0132292;stroke-linejoin:round;paint-order:stroke fill markers"
       d="m 261.35531,42.774248 -2.43396,4.127397 c -1.34056,2.293056 -3.66893,6.244339 -5.15059,8.819616 l -2.71664,4.621424 5.04466,8.854758 5.04465,8.854756 h 9.91309 9.94823 l 5.11545,-8.819616 5.15059,-8.819616 -5.00951,-8.819103 -5.00952,-8.784477 -9.94822,-0.03514 z" />
    <path
       id="path1123"
       style="fill:#ededed;stroke:#000000;stroke-width:0.0132292;stroke-linejoin:round;paint-order:stroke fill markers"
       d="m 73.042313,42.774248 -5.150073,8.854758 -5.186246,8.854755 5.044652,8.783961 5.009515,8.784477 10.195243,-0.105937 10.160104,-0.07079 5.009467,-8.607746 5.044635,-8.607743 -5.114912,-8.925037 -5.115408,-8.960694 h -9.948231 z" />
    <path
       id="path1119"
       style="fill:#ededed;stroke:#000000;stroke-width:0.0132292;stroke-linejoin:round;paint-order:stroke fill markers"
       d="m 418.41188,24.429631 -5.15059,8.819616 -5.11493,8.819616 4.97385,8.819103 5.00952,8.784477 10.23038,0.03514 h 10.23091 l 5.04465,-8.607743 c 2.75166,-4.7625 5.00951,-8.749165 5.00951,-8.925555 0,-0.14111 -2.25785,-4.197917 -5.00951,-9.030973 l -5.00952,-8.71368 h -10.0893 z" />
    <path
       id="path1117"
       style="fill:#ededed;stroke:#000000;stroke-width:0.0132292;stroke-linejoin:round;paint-order:stroke fill markers"
       d="m 355.26483,24.429631 -5.04465,8.643398 c -3.91584,6.738057 -4.9743,8.819241 -4.72737,9.313128 0.1764,0.35278 2.46923,4.409723 5.07979,8.995834 l 4.7625,8.325591 h 10.05417 10.05417 l 5.04465,-8.642885 c 2.75166,-4.7625 5.00951,-8.819685 5.00951,-9.066628 0,-0.246946 -2.22247,-4.268373 -4.90357,-8.92504 l -4.90358,-8.466667 -10.19524,-0.105936 z" />
    <path
       id="path1115"
       style="fill:#ededed;stroke:#000000;stroke-width:0.0132292;stroke-linejoin:round;paint-order:stroke fill markers"
       d="m 229.74638,24.429631 -4.93872,8.502323 c -2.71638,4.691943 -4.9741,8.642713 -5.04465,8.8191 -0.0706,0.176389 2.15191,4.268578 4.90358,9.136912 l 5.04465,8.819616 h 10.12445 10.12496 l 5.00951,-8.67854 5.04466,-8.678024 -0.74104,-1.270207 c -0.38806,-0.705556 -2.6809,-4.72712 -5.07979,-8.889897 l -4.37441,-7.584552 -10.05417,-0.105936 z" />
    <path
       id="path1113"
       style="fill:#ededed;stroke:#000000;stroke-width:0.0132292;stroke-linejoin:round;paint-order:stroke fill markers"
       d="m 167.30471,24.429631 -5.00951,8.607743 c -2.75167,4.691944 -5.0449,8.749166 -5.11545,8.925553 -0.0706,0.211666 2.1169,4.268338 4.83329,9.066115 l 4.93872,8.67854 h 7.26726 c 3.98639,0 8.43156,0.10604 9.87795,0.211873 l 2.61069,0.211357 5.22087,-9.030973 5.25653,-8.995834 -5.04465,-8.854758 -5.04466,-8.819616 h -9.91309 z" />
    <path
       id="path1111"
       style="fill:#ededed;stroke:#000000;stroke-width:0.0132292;stroke-linejoin:round;paint-order:stroke fill markers"
       d="m 104.72196,24.429631 -0.52916,0.776179 c -1.19945,1.905 -9.419339,16.157293 -9.595728,16.65118 -0.141111,0.35278 1.587912,3.77493 4.657024,9.207707 l 4.903564,8.607746 10.05416,0.03514 h 10.08931 l 5.04465,-8.642885 c 2.99862,-5.150554 4.97427,-8.925208 4.86844,-9.277985 -0.0705,-0.3175 -2.29288,-4.33958 -4.93871,-8.890414 l -4.79816,-8.289936 -9.87744,-0.105936 z" />
    <path
       id="path1109"
       style="fill:#ededed;stroke:#000000;stroke-width:0.0132292;stroke-linejoin:round;paint-order:stroke fill markers"
       d="m 41.645261,24.429631 -5.079794,8.71368 c -2.786946,4.797777 -5.115176,8.819581 -5.18573,8.960694 -0.07056,0.14111 2.116254,4.127397 4.867921,8.889898 l 4.939231,8.607743 9.983374,0.211873 c 7.478887,0.14111 10.054477,0.105627 10.371977,-0.211873 0.59972,-0.635 10.089306,-16.933094 10.089306,-17.391704 0,-0.211667 -2.187326,-4.198091 -4.868437,-8.854758 l -4.868436,-8.466668 -4.444691,-0.211873 c -2.434167,-0.14111 -6.985241,-0.247012 -10.124965,-0.247012 z" />
    <path
       id="path1107"
       style="fill:#ededed;stroke:#000000;stroke-width:0.0132292;stroke-linejoin:round;paint-order:stroke fill markers"
       d="m 292.39993,24.077195 -1.48209,2.539897 c -0.84667,1.411113 -3.10399,5.256494 -5.00899,8.572604 -1.94029,3.280834 -3.52795,6.138334 -3.52795,6.350001 0,0.176389 2.25785,4.268338 5.00951,9.066115 l 5.04466,8.748821 h 7.61968 c 4.19806,0 8.71389,0.10604 9.98389,0.211873 l 2.29288,0.247013 5.18573,-8.925553 5.22139,-8.889897 -5.11545,-8.889898 -5.11493,-8.854758 -10.05416,-0.105936 z" />
    <path
       id="path1105"
       style="fill:#ededed;stroke:#000000;stroke-width:0.0132292;stroke-linejoin:round;paint-order:stroke fill markers"
       d="m 73.042313,6.4379502 -5.008997,8.5726168 c -2.71639,4.727221 -4.974373,8.749025 -4.974373,8.960692 0,0.211666 2.222706,4.303615 4.974373,9.066115 l 4.973857,8.67854 9.87795,-0.0708 9.913091,-0.10542 5.044626,-8.643399 c 2.7869,-4.7625 5.07975,-8.784167 5.07975,-8.995834 0,-0.17639 -2.18694,-4.197953 -4.832752,-8.889897 L 93.221444,6.4736032 83.132138,6.4379432 Z" />
    <path
       id="path1103"
       style="fill:#ededed;stroke:#000000;stroke-width:0.0132292;stroke-linejoin:round;paint-order:stroke fill markers"
       d="M 26.793452,6.2968722 C 20.196508,5.9088182 10.283314,6.0501352 9.8952568,6.5087452 9.4013674,7.1437452 0.65250756,22.172161 0.22917429,23.15994 c -0.35277789,0.705554 0.14131783,1.763784 3.91604041,8.360731 2.3636116,4.162777 4.6916038,8.11406 5.114938,8.819616 l 0.8469793,1.30483 9.98337,0.03566 9.983886,0.07028 5.079794,-8.748819 c 2.786947,-4.79778 5.079794,-8.925384 5.079794,-9.101771 0,-0.211666 -2.186808,-4.162814 -4.867921,-8.854758 L 30.497619,6.5438902 Z" />
    <path
       id="path1101"
       style="fill:#ededed;stroke:#000000;stroke-width:0.0132292;stroke-linejoin:round;paint-order:stroke fill markers"
       d="m 323.79698,6.2265932 c -0.1764,0.211667 -2.25782,3.7042128 -4.62143,7.7964348 -2.3636,4.056947 -4.58594,7.902224 -4.93871,8.466667 l -0.67024,1.058334 5.04465,8.819103 5.04465,8.819616 10.19525,0.0708 10.19524,0.105421 4.93871,-8.536949 c 2.7164,-4.691944 4.97412,-8.713748 5.04465,-8.960695 0.10584,-0.388054 -9.10135,-16.8627908 -9.73635,-17.4625138 -0.4586,-0.423333 -20.17892,-0.564271 -20.49642,-0.176215 z" />
    <path
       id="path1099"
       style="fill:#ededed;stroke:#000000;stroke-width:0.0132292;stroke-linejoin:round;paint-order:stroke fill markers"
       d="m 397.10413,6.0855152 c -7.65527,0 -10.19532,0.10573 -10.44225,0.42323 -0.35277,0.458613 -8.78391,14.9225138 -9.59528,16.4041798 -0.35279,0.705557 0.14113,1.728717 4.62143,9.630938 l 5.04465,8.819103 10.19524,-0.105421 10.19524,-0.0708 5.07979,-8.71368 5.08032,-8.748822 -5.00951,-8.819616 -5.04466,-8.8191148 z" />
    <path
       id="path1097"
       style="fill:#ededed;stroke:#000000;stroke-width:0.0132292;stroke-linejoin:round;paint-order:stroke fill markers"
       d="m 198.34933,6.0855152 -5.08031,8.6780368 c -4.445,7.65528 -5.00934,8.784442 -4.65657,9.454722 0.24695,0.388054 2.50452,4.374478 5.0798,8.854755 l 4.65708,8.113719 10.05417,0.105936 10.0893,0.07028 5.00952,-8.607746 c 2.75166,-4.727221 5.00951,-8.783789 5.00951,-8.960176 0,-0.17639 -2.22271,-4.233712 -4.97437,-9.031492 l -4.97438,-8.6780368 h -10.0893 z" />
    <path
       id="path1095"
       style="fill:#ededed;stroke:#000000;stroke-width:0.0132292;stroke-linejoin:round;paint-order:stroke fill markers"
       d="m 135.76658,6.0855152 -1.90531,3.2452851 c -1.05833,1.7991757 -3.3867,5.7855997 -5.15059,8.8547667 l -3.24528,5.538679 5.00951,8.783961 4.97386,8.749338 7.12618,0.211357 c 3.88056,0.14111 8.46691,0.247012 10.12497,0.247012 h 2.99826 l 5.15059,-8.819616 5.11545,-8.783961 -4.37441,-7.690488 c -2.39889,-4.233333 -4.76263,-8.2901528 -5.25652,-9.0309858 l -0.84646,-1.305348 h -9.87795 z" />
    <path
       id="path1093"
       style="fill:#ededed;stroke:#000000;stroke-width:0.0132292;stroke-linejoin:round;paint-order:stroke fill markers"
       d="m 261.7434,5.6266292 -0.88212,1.376143 c -0.49389,0.776111 -2.89264,4.8329318 -5.32681,9.0309858 l -4.4452,7.655349 4.93923,8.607743 4.97386,8.607743 9.70174,0.282155 c 8.00803,0.211666 9.80717,0.176183 10.19524,-0.211873 0.635,-0.705557 10.15958,-17.003513 10.15958,-17.426846 0,-0.246944 -9.27762,-16.7220938 -9.77149,-17.3570938 0,0 -4.40978,-0.141041 -9.77202,-0.282151 z" />
    <rect
       style="fill:#ededed;fill-opacity:1;stroke:none;stroke-width:0.0755747;stroke-linejoin:round;stroke-opacity:1;paint-order:stroke fill markers"
       id="rect6753"
       width="512.19354"
       height="23.97949"
       x="0"
       y="0" />
    <rect
       style="fill:#121212;fill-opacity:1;stroke:none;stroke-width:0.167022;stroke-linejoin:round;stroke-opacity:1;paint-order:stroke fill markers"
       id="rect10584-7-2-1"
       width="32.051624"
       height="1.8520859"
       x="480.14282"
       y="23.031893" />
    <rect
       style="fill:#121212;fill-opacity:1;stroke:none;stroke-width:0.139966;stroke-linejoin:round;stroke-opacity:1;paint-order:stroke fill markers"
       id="rect10584-7-2"
       width="22.508646"
       height="1.8520859"
       x="417.09756"
       y="22.721882" />
    <rect
       style="fill:#121212;fill-opacity:1;stroke:none;stroke-width:0.142521;stroke-linejoin:round;stroke-opacity:1;paint-order:stroke fill markers"
       id="rect10584-7-1"
       width="23.1775"
       height="1.864859"
       x="353.93466"
       y="22.728168" />
    <rect
       style="fill:#121212;fill-opacity:1;stroke:none;stroke-width:0.141217;stroke-linejoin:round;stroke-opacity:1;paint-order:stroke fill markers"
       id="rect10584-7-8"
       width="22.965834"
       height="1.8478283"
       x="290.86545"
       y="22.383751" />
    <rect
       style="fill:#121212;fill-opacity:1;stroke:none;stroke-width:0.140402;stroke-linejoin:round;stroke-opacity:1;paint-order:stroke fill markers"
       id="rect10584-7-4"
       width="22.833542"
       height="1.8371843"
       x="40.206871"
       y="22.966064" />
    <rect
       style="fill:#121212;fill-opacity:1;stroke:none;stroke-width:0.139587;stroke-linejoin:round;stroke-opacity:1;paint-order:stroke fill markers"
       id="rect10584-7-5"
       width="22.70125"
       height="1.8265398"
       x="102.89646"
       y="22.665796" />
    <rect
       style="fill:#121212;fill-opacity:1;stroke:none;stroke-width:0.139098;stroke-linejoin:round;stroke-opacity:1;paint-order:stroke fill markers"
       id="rect10584-7-7"
       width="22.621876"
       height="1.8201532"
       x="165.92021"
       y="22.568958" />
    <rect
       style="fill:#121212;fill-opacity:1;stroke:none;stroke-width:0.132292;stroke-linejoin:round;stroke-opacity:1;paint-order:stroke fill markers"
       id="rect10584"
       width="20.108322"
       height="1.8520859"
       x="261.14374"
       y="41.010418" />
    <rect
       style="fill:#121212;fill-opacity:1;stroke:none;stroke-width:0.141543;stroke-linejoin:round;stroke-opacity:1;paint-order:stroke fill markers"
       id="rect10584-7"
       width="23.018751"
       height="1.8520859"
       x="228.33542"
       y="22.727709" />
    <path
       id="path10787"
       style="fill:#ededed;stroke:#000000;stroke-width:0.0132292;stroke-linejoin:round;paint-order:stroke fill markers"
       d="m 323.76184,42.774248 -1.05833,1.834512 c -0.56444,1.023057 -2.82215,4.938959 -5.04465,8.713682 l -3.98685,6.879168 5.08032,8.925036 5.11492,8.925553 h 10.08983 10.08931 l 4.93871,-8.537462 c 2.7164,-4.656667 4.97412,-8.678093 5.04465,-8.925039 0.0353,-0.211667 -2.15151,-4.303991 -4.86791,-9.101771 l -5.00951,-8.713679 h -10.19525 z" />
    <path
       id="path10789"
       style="fill:#ededed;stroke:#000000;stroke-width:0.0132292;stroke-linejoin:round;paint-order:stroke fill markers"
       d="m 355.26483,24.429631 -5.04465,8.643398 c -3.91584,6.738057 -4.9743,8.819241 -4.72737,9.313128 0.1764,0.35278 2.46923,4.409723 5.07979,8.995834 l 4.7625,8.325591 h 10.05417 10.05417 l 5.04465,-8.642885 c 2.75166,-4.7625 5.00951,-8.819685 5.00951,-9.066628 0,-0.246946 -2.22247,-4.268373 -4.90357,-8.92504 l -4.90358,-8.466667 -10.19524,-0.105936 z" />
  </g>
  <rect
     style="fill:none;stroke:none;stroke-width:0.130178;stroke-linejoin:round;paint-order:stroke fill markers"
     id="rect2037"
     width="491.71603"
     height="119.15612"
     x="10.143832"
     y="2.2351074e-07" />
  <g
     transform="matrix(0.02645833,0,0,-0.02645833,-92.685385,185.36705)"
     fill="#000000"
     stroke="none"
     id="g2462"
     style="fill:#121212;fill-opacity:1" />
</svg>
